<mxfile host="Electron" modified="2024-06-15T22:02:47.981Z" agent="Mozilla/5.0 (Windows NT 10.0; Win64; x64) AppleWebKit/537.36 (KHTML, like Gecko) draw.io/24.5.3 Chrome/124.0.6367.207 Electron/30.0.6 Safari/537.36" etag="siU7P3jDP3CaqjwMqae_" version="24.5.3" type="device">
  <diagram name="Page-1" id="KxFUunisI3KA-j2Cj4el">
    <mxGraphModel dx="1103" dy="-551" grid="0" gridSize="10" guides="1" tooltips="1" connect="1" arrows="1" fold="1" page="0" pageScale="1" pageWidth="850" pageHeight="1100" math="0" shadow="0">
      <root>
        <mxCell id="0" />
        <mxCell id="1" parent="0" />
        <mxCell id="Fsr9ZngQqqMnOgbyJzkZ-1" value="" style="shape=table;startSize=0;container=1;collapsible=0;childLayout=tableLayout;" vertex="1" parent="1">
          <mxGeometry x="175" y="1361" width="512" height="274" as="geometry" />
        </mxCell>
        <mxCell id="Fsr9ZngQqqMnOgbyJzkZ-2" value="" style="shape=tableRow;horizontal=0;startSize=0;swimlaneHead=0;swimlaneBody=0;strokeColor=inherit;top=0;left=0;bottom=0;right=0;collapsible=0;dropTarget=0;fillColor=none;points=[[0,0.5],[1,0.5]];portConstraint=eastwest;" vertex="1" parent="Fsr9ZngQqqMnOgbyJzkZ-1">
          <mxGeometry width="512" height="92" as="geometry" />
        </mxCell>
        <mxCell id="Fsr9ZngQqqMnOgbyJzkZ-3" value="" style="shape=partialRectangle;html=1;whiteSpace=wrap;connectable=0;strokeColor=inherit;overflow=hidden;fillColor=none;top=0;left=0;bottom=0;right=0;pointerEvents=1;" vertex="1" parent="Fsr9ZngQqqMnOgbyJzkZ-2">
          <mxGeometry width="128" height="92" as="geometry">
            <mxRectangle width="128" height="92" as="alternateBounds" />
          </mxGeometry>
        </mxCell>
        <mxCell id="Fsr9ZngQqqMnOgbyJzkZ-4" value="ADMIN_USER" style="shape=partialRectangle;html=1;whiteSpace=wrap;connectable=0;strokeColor=inherit;overflow=hidden;fillColor=none;top=0;left=0;bottom=0;right=0;pointerEvents=1;verticalAlign=middle;spacingTop=0;spacingBottom=60;" vertex="1" parent="Fsr9ZngQqqMnOgbyJzkZ-2">
          <mxGeometry x="128" width="128" height="92" as="geometry">
            <mxRectangle width="128" height="92" as="alternateBounds" />
          </mxGeometry>
        </mxCell>
        <mxCell id="Fsr9ZngQqqMnOgbyJzkZ-5" value="Main_user" style="shape=partialRectangle;html=1;whiteSpace=wrap;connectable=0;strokeColor=inherit;overflow=hidden;fillColor=none;top=0;left=0;bottom=0;right=0;pointerEvents=1;verticalAlign=middle;spacingTop=0;spacingBottom=60;" vertex="1" parent="Fsr9ZngQqqMnOgbyJzkZ-2">
          <mxGeometry x="256" width="128" height="92" as="geometry">
            <mxRectangle width="128" height="92" as="alternateBounds" />
          </mxGeometry>
        </mxCell>
        <mxCell id="Fsr9ZngQqqMnOgbyJzkZ-6" value="Viewing_user" style="shape=partialRectangle;html=1;whiteSpace=wrap;connectable=0;strokeColor=inherit;overflow=hidden;fillColor=none;top=0;left=0;bottom=0;right=0;pointerEvents=1;verticalAlign=middle;spacingTop=0;spacingBottom=60;" vertex="1" parent="Fsr9ZngQqqMnOgbyJzkZ-2">
          <mxGeometry x="384" width="128" height="92" as="geometry">
            <mxRectangle width="128" height="92" as="alternateBounds" />
          </mxGeometry>
        </mxCell>
        <mxCell id="Fsr9ZngQqqMnOgbyJzkZ-7" value="" style="shape=tableRow;horizontal=0;startSize=0;swimlaneHead=0;swimlaneBody=0;strokeColor=inherit;top=0;left=0;bottom=0;right=0;collapsible=0;dropTarget=0;fillColor=none;points=[[0,0.5],[1,0.5]];portConstraint=eastwest;" vertex="1" parent="Fsr9ZngQqqMnOgbyJzkZ-1">
          <mxGeometry y="92" width="512" height="90" as="geometry" />
        </mxCell>
        <mxCell id="Fsr9ZngQqqMnOgbyJzkZ-8" value="Task" style="shape=partialRectangle;html=1;whiteSpace=wrap;connectable=0;strokeColor=inherit;overflow=hidden;fillColor=none;top=0;left=0;bottom=0;right=0;pointerEvents=1;labelPosition=center;verticalLabelPosition=middle;align=center;verticalAlign=middle;spacingLeft=0;spacingRight=80;" vertex="1" parent="Fsr9ZngQqqMnOgbyJzkZ-7">
          <mxGeometry width="128" height="90" as="geometry">
            <mxRectangle width="128" height="90" as="alternateBounds" />
          </mxGeometry>
        </mxCell>
        <mxCell id="Fsr9ZngQqqMnOgbyJzkZ-9" value="CRUD" style="shape=partialRectangle;html=1;whiteSpace=wrap;connectable=0;strokeColor=inherit;overflow=hidden;fillColor=none;top=0;left=0;bottom=0;right=0;pointerEvents=1;" vertex="1" parent="Fsr9ZngQqqMnOgbyJzkZ-7">
          <mxGeometry x="128" width="128" height="90" as="geometry">
            <mxRectangle width="128" height="90" as="alternateBounds" />
          </mxGeometry>
        </mxCell>
        <mxCell id="Fsr9ZngQqqMnOgbyJzkZ-10" value="CRU" style="shape=partialRectangle;html=1;whiteSpace=wrap;connectable=0;strokeColor=inherit;overflow=hidden;fillColor=none;top=0;left=0;bottom=0;right=0;pointerEvents=1;" vertex="1" parent="Fsr9ZngQqqMnOgbyJzkZ-7">
          <mxGeometry x="256" width="128" height="90" as="geometry">
            <mxRectangle width="128" height="90" as="alternateBounds" />
          </mxGeometry>
        </mxCell>
        <mxCell id="Fsr9ZngQqqMnOgbyJzkZ-11" value="CR" style="shape=partialRectangle;html=1;whiteSpace=wrap;connectable=0;strokeColor=inherit;overflow=hidden;fillColor=none;top=0;left=0;bottom=0;right=0;pointerEvents=1;" vertex="1" parent="Fsr9ZngQqqMnOgbyJzkZ-7">
          <mxGeometry x="384" width="128" height="90" as="geometry">
            <mxRectangle width="128" height="90" as="alternateBounds" />
          </mxGeometry>
        </mxCell>
        <mxCell id="Fsr9ZngQqqMnOgbyJzkZ-12" value="" style="shape=tableRow;horizontal=0;startSize=0;swimlaneHead=0;swimlaneBody=0;strokeColor=inherit;top=0;left=0;bottom=0;right=0;collapsible=0;dropTarget=0;fillColor=none;points=[[0,0.5],[1,0.5]];portConstraint=eastwest;" vertex="1" parent="Fsr9ZngQqqMnOgbyJzkZ-1">
          <mxGeometry y="182" width="512" height="92" as="geometry" />
        </mxCell>
        <mxCell id="Fsr9ZngQqqMnOgbyJzkZ-13" value="Post" style="shape=partialRectangle;html=1;whiteSpace=wrap;connectable=0;strokeColor=inherit;overflow=hidden;fillColor=none;top=0;left=0;bottom=0;right=0;pointerEvents=1;labelPosition=center;verticalLabelPosition=middle;align=center;verticalAlign=middle;spacingLeft=0;spacingRight=80;" vertex="1" parent="Fsr9ZngQqqMnOgbyJzkZ-12">
          <mxGeometry width="128" height="92" as="geometry">
            <mxRectangle width="128" height="92" as="alternateBounds" />
          </mxGeometry>
        </mxCell>
        <mxCell id="Fsr9ZngQqqMnOgbyJzkZ-14" value="CRUD" style="shape=partialRectangle;html=1;whiteSpace=wrap;connectable=0;strokeColor=inherit;overflow=hidden;fillColor=none;top=0;left=0;bottom=0;right=0;pointerEvents=1;" vertex="1" parent="Fsr9ZngQqqMnOgbyJzkZ-12">
          <mxGeometry x="128" width="128" height="92" as="geometry">
            <mxRectangle width="128" height="92" as="alternateBounds" />
          </mxGeometry>
        </mxCell>
        <mxCell id="Fsr9ZngQqqMnOgbyJzkZ-15" value="CRU" style="shape=partialRectangle;html=1;whiteSpace=wrap;connectable=0;strokeColor=inherit;overflow=hidden;fillColor=none;top=0;left=0;bottom=0;right=0;pointerEvents=1;" vertex="1" parent="Fsr9ZngQqqMnOgbyJzkZ-12">
          <mxGeometry x="256" width="128" height="92" as="geometry">
            <mxRectangle width="128" height="92" as="alternateBounds" />
          </mxGeometry>
        </mxCell>
        <mxCell id="Fsr9ZngQqqMnOgbyJzkZ-16" value="CR" style="shape=partialRectangle;html=1;whiteSpace=wrap;connectable=0;strokeColor=inherit;overflow=hidden;fillColor=none;top=0;left=0;bottom=0;right=0;pointerEvents=1;" vertex="1" parent="Fsr9ZngQqqMnOgbyJzkZ-12">
          <mxGeometry x="384" width="128" height="92" as="geometry">
            <mxRectangle width="128" height="92" as="alternateBounds" />
          </mxGeometry>
        </mxCell>
        <mxCell id="Fsr9ZngQqqMnOgbyJzkZ-17" value="Action" style="text;strokeColor=none;align=center;fillColor=none;html=1;verticalAlign=middle;whiteSpace=wrap;rounded=0;" vertex="1" parent="1">
          <mxGeometry x="175" y="1422" width="60" height="30" as="geometry" />
        </mxCell>
        <mxCell id="Fsr9ZngQqqMnOgbyJzkZ-18" value="User type" style="text;strokeColor=none;align=center;fillColor=none;html=1;verticalAlign=middle;whiteSpace=wrap;rounded=0;" vertex="1" parent="1">
          <mxGeometry x="243" y="1361" width="60" height="30" as="geometry" />
        </mxCell>
      </root>
    </mxGraphModel>
  </diagram>
</mxfile>
